<svg width="93" height="24" viewBox="0 0 93 24" fill="none" xmlns="http://www.w3.org/2000/svg">
<g id="Frame" clip-path="url(#clip0_1_1532)">
<g id="Group">
<g id="Group_2">
<path id="Vector" d="M87.4818 5.51432H86.6955V2.56246H85.6333V1.87598H88.544V2.56246H87.4818V5.51432Z" fill="white"/>
<path id="Vector_2" d="M92.9997 5.51432H92.2134V2.97435L91.1788 5.52805H90.834L89.7994 2.97435V5.52805H89.0269V1.87598H90.1166L90.9995 4.07271L91.8824 1.87598H92.9722V5.51432H92.9997Z" fill="white"/>
</g>
<g id="Group_3">
<path id="Vector_3" d="M34.2617 6.22833C29.9163 6.22833 27.5988 8.31523 26.7022 11.3632V0.118652H22.481V17.0061C22.481 18.2417 21.6119 19.3126 20.3842 19.5186C17.6252 19.9717 12.935 19.8481 11.0176 19.8481C7.36196 19.8481 5.22377 17.9397 4.90649 15.2761H20.3014C20.5773 9.15273 17.3218 6.2146 11.0176 6.2146C4.75475 6.22833 0.657715 9.38614 0.657715 14.6583C0.657715 19.9854 4.93408 23.0334 11.1279 23.0334C14.3973 23.0334 19.2392 22.951 22.6189 21.935C23.888 21.5506 24.9364 21.0426 25.4468 20.26C26.0262 19.3813 26.7022 18.5575 26.7022 17.5141V17.5003C27.0195 20.6444 29.9577 23.0196 34.2617 23.0196C39.1588 23.0196 42.8972 19.6559 42.8972 14.6446C42.8972 9.57835 39.2554 6.22833 34.2617 6.22833ZM10.8106 9.4136C13.9834 9.4136 15.8733 10.7728 16.1216 12.9696H5.11341C5.6652 10.9513 7.69303 9.4136 10.8106 9.4136ZM32.896 19.7794C29.0749 19.7794 26.7022 17.7337 26.7022 14.6583C26.7022 11.3632 29.1025 9.48224 32.896 9.48224C36.5102 9.48224 38.5794 11.5554 38.5794 14.6583C38.5794 17.7612 36.3171 19.7794 32.896 19.7794Z" fill="white"/>
<path id="Vector_4" d="M75.1079 14.3565L82.3915 6.59927H77.2323L72.7628 11.8165L67.9346 6.59927H62.7892L70.3211 14.5487L67.7001 17.3633L67.5898 17.4868C65.286 20.0268 56.6091 19.8483 54.0157 19.8483C50.3601 19.8483 48.2219 17.9399 47.9047 15.2764H63.2996C63.5755 9.15298 60.3199 6.21484 54.0019 6.21484C47.7529 6.21484 43.6421 9.37265 43.6421 14.6586C43.6421 19.9856 47.9323 23.0336 54.1123 23.0336C56.6505 23.0336 59.1888 23.116 61.727 22.8826C63.6859 22.7041 65.6861 22.3609 67.5208 21.6057C68.5968 21.1527 69.6176 20.5348 70.4315 19.6973C70.9971 19.1069 71.5075 18.4617 72.0455 17.8438C72.1006 17.7752 72.1558 17.7065 72.2248 17.6241L72.68 17.1024L77.6599 22.6629H82.8192L75.1079 14.3565ZM53.795 9.41384C56.9678 9.41384 58.8715 10.7731 59.1198 12.9698H48.1116C48.6634 10.9516 50.6912 9.41384 53.795 9.41384Z" fill="white"/>
</g>
</g>
</g>
<defs>
<clipPath id="clip0_1_1532">
<rect width="92.342" height="22.9284" fill="white" transform="translate(0.657715 0.118652)"/>
</clipPath>
</defs>
</svg>
