<svg width="14" height="14" viewBox="0 0 14 14" fill="none" xmlns="http://www.w3.org/2000/svg">
<g id="global (6) 1" clip-path="url(#clip0_1_38)">
<g id="Group">
<g id="Group_2">
<path id="Vector" d="M12.7056 2.95938C12.7054 2.95487 12.7049 2.95036 12.7041 2.94587C12.6866 2.92088 12.6651 2.89937 12.6471 2.87487C12.5164 2.69681 12.378 2.52543 12.232 2.36071C12.192 2.31569 12.152 2.27118 12.111 2.22716C11.9606 2.06613 11.8029 1.91257 11.6378 1.76654C11.6073 1.73952 11.5788 1.71154 11.5483 1.68502C11.1416 1.33655 10.6962 1.03582 10.2209 0.788773C10.2019 0.77878 10.1819 0.770281 10.1624 0.760259C9.95077 0.652709 9.73376 0.556031 9.51222 0.470664C9.46219 0.452671 9.41668 0.435645 9.36918 0.42064C9.17213 0.349634 8.97206 0.287448 8.76901 0.234083C8.70899 0.218082 8.64897 0.201584 8.58796 0.187576C8.38789 0.141068 8.18785 0.10555 7.98327 0.076538C7.92127 0.0675413 7.86025 0.0555261 7.79771 0.048024C7.27084 -0.016008 6.73815 -0.016008 6.21125 0.048024C6.14874 0.0555261 6.08773 0.0675413 6.02569 0.076538C5.82114 0.10555 5.61908 0.141068 5.421 0.187576C5.35999 0.201584 5.29997 0.218082 5.23995 0.234083C5.03555 0.287419 4.83551 0.349604 4.63978 0.42064C4.58976 0.437637 4.54425 0.454664 4.49675 0.470664C4.27523 0.556031 4.05819 0.652679 3.84655 0.760259C3.82703 0.770252 3.80705 0.77875 3.78803 0.788773C3.3112 1.03555 2.86433 1.33625 2.45613 1.68502C2.42563 1.71151 2.39711 1.73952 2.36661 1.76654C2.19989 1.91324 2.04217 2.0668 1.89347 2.22716C1.85248 2.27118 1.81244 2.31569 1.77244 2.36071C1.62606 2.52508 1.48768 2.69646 1.35733 2.87484C1.33934 2.89934 1.31783 2.92085 1.30031 2.94584C1.29802 2.95021 1.296 2.95472 1.2943 2.95935C-0.430782 5.37695 -0.430782 8.62309 1.2943 11.0407C1.296 11.0453 1.29799 11.0498 1.30031 11.0542C1.3178 11.0792 1.33931 11.1007 1.35733 11.1252C1.48771 11.3032 1.62606 11.4746 1.77244 11.6393C1.81244 11.6844 1.85248 11.7289 1.89347 11.7729C2.04419 11.9339 2.20188 12.0875 2.36661 12.2335C2.39711 12.2605 2.42563 12.2885 2.45613 12.315C2.86289 12.6635 3.30827 12.9642 3.78351 13.2113C3.80253 13.2213 3.82252 13.2298 3.84204 13.2398C4.05368 13.3473 4.27068 13.444 4.49223 13.5294C4.54226 13.5474 4.58777 13.5644 4.63527 13.5794C4.83232 13.6504 5.03239 13.7126 5.23544 13.766C5.29546 13.782 5.35548 13.7985 5.41649 13.8125C5.61656 13.859 5.81659 13.8945 6.02117 13.9235C6.08318 13.9325 6.1442 13.9445 6.20673 13.952C6.73361 14.0161 7.26629 14.0161 7.7932 13.952C7.85571 13.9445 7.91672 13.9325 7.97876 13.9235C8.18331 13.8945 8.38537 13.859 8.58345 13.8125C8.64446 13.7985 8.70448 13.782 8.76449 13.766C8.96922 13.7126 9.16929 13.6504 9.36466 13.5794C9.41469 13.5624 9.4602 13.5454 9.5077 13.5294C9.72922 13.444 9.94626 13.3474 10.1579 13.2398C10.1774 13.2298 10.1974 13.2213 10.2164 13.2113C10.6917 12.9642 11.137 12.6635 11.5438 12.315C11.5743 12.2885 11.6028 12.2605 11.6333 12.2335C11.8 12.0871 11.9578 11.9336 12.1065 11.7729C12.1475 11.7289 12.1875 11.6844 12.2275 11.6393C12.3739 11.4746 12.5123 11.3032 12.6426 11.1252C12.6606 11.1007 12.6821 11.0792 12.6996 11.0542C12.7019 11.0498 12.7039 11.0453 12.7056 11.0407C14.4307 8.62312 14.4307 5.37698 12.7056 2.95938ZM12.135 3.90568C12.6133 4.69343 12.9021 5.5815 12.9787 6.49993H9.98286C9.94617 5.90398 9.85239 5.31295 9.70279 4.73493C10.549 4.57645 11.3681 4.29717 12.135 3.90568ZM8.27486 1.13636C8.30288 1.14287 8.32987 1.15187 8.35788 1.15837C8.53694 1.20039 8.7145 1.2484 8.88804 1.30841C8.91457 1.31741 8.94056 1.32793 8.96658 1.33743C9.13863 1.39744 9.30816 1.46397 9.47424 1.53749C9.50325 1.551 9.53176 1.56601 9.56077 1.57952C9.71981 1.65521 9.87519 1.73706 10.0269 1.82509L10.1269 1.88561C10.271 1.97364 10.411 2.06783 10.547 2.1682C10.5821 2.1937 10.6171 2.21822 10.6516 2.24621C10.7849 2.34623 10.9127 2.45343 11.0347 2.56781C11.0667 2.59682 11.0997 2.62533 11.1312 2.65534C11.2592 2.77687 11.3813 2.9054 11.4993 3.03845C11.5143 3.05594 11.5303 3.07195 11.5453 3.08847C10.8681 3.41121 10.1507 3.64167 9.41223 3.77366C9.07012 2.8332 8.6182 1.9364 8.06586 1.1019C8.13531 1.11438 8.20635 1.12139 8.27486 1.13636ZM5.01993 6.4999C5.05938 5.95875 5.15151 5.42273 5.29502 4.89945C5.86169 4.96676 6.43186 5.00014 7.00252 4.99947C7.57371 4.99929 8.14439 4.96507 8.71151 4.89693C8.85475 5.42105 8.94639 5.95793 8.98507 6.4999H5.01993ZM8.98507 7.5002C8.94563 8.04136 8.85349 8.57738 8.70999 9.10065C8.14331 9.03334 7.57315 8.99996 7.00249 9.00063C6.43133 8.99999 5.86067 9.03337 5.2935 9.10065C5.1504 8.57735 5.05879 8.04133 5.0199 7.5002H8.98507ZM7.00249 1.32444C7.57165 2.13113 8.03978 3.00457 8.39639 3.9252C7.9334 3.97437 7.46812 3.99908 7.00249 3.99922C6.53738 3.99867 6.0726 3.97381 5.61008 3.9247C5.96713 3.00469 6.4347 2.13154 7.00249 1.32444ZM2.50622 3.03792C2.62376 2.90488 2.74629 2.77634 2.87432 2.65481C2.90582 2.62481 2.93885 2.59629 2.97085 2.56728C3.09423 2.45492 3.22194 2.34772 3.35396 2.24568C3.38848 2.21916 3.42347 2.19566 3.45849 2.16767C3.59452 2.06765 3.73457 1.97344 3.87861 1.88508L3.97863 1.82457C4.13034 1.73589 4.28572 1.65401 4.44476 1.57899C4.47377 1.56548 4.50228 1.55048 4.5313 1.53697C4.69734 1.46194 4.8669 1.39542 5.03895 1.3369C5.06494 1.3274 5.08897 1.31688 5.11746 1.30789C5.291 1.24986 5.46757 1.20186 5.64762 1.15784C5.67564 1.15134 5.70263 1.14234 5.73114 1.13633C5.79965 1.12133 5.87069 1.11433 5.9402 1.10181C5.38762 1.93645 4.93556 2.83343 4.59331 3.77407C3.85484 3.64208 3.13739 3.41162 2.46021 3.08888C2.47521 3.07142 2.49121 3.05542 2.50622 3.03792ZM1.87003 3.90568C2.63668 4.29714 3.45562 4.57642 4.30172 4.73493C4.15229 5.31298 4.05866 5.90401 4.02215 6.49993H1.0263C1.10291 5.5815 1.39174 4.69343 1.87003 3.90568ZM1.87003 10.0945C1.39171 9.3067 1.10288 8.41863 1.0263 7.5002H4.02215C4.05884 8.09616 4.15261 8.68718 4.30222 9.2652C3.45597 9.42365 2.63686 9.70293 1.87003 10.0945ZM5.73014 12.8637C5.70213 12.8572 5.67514 12.8482 5.64712 12.8417C5.46807 12.7997 5.29051 12.7517 5.11696 12.6917C5.09044 12.6827 5.06445 12.6722 5.03842 12.6627C4.86637 12.6027 4.69684 12.5361 4.53077 12.4626C4.50176 12.4491 4.47324 12.4341 4.44423 12.4206C4.28519 12.3449 4.12981 12.263 3.9781 12.175L3.87808 12.1145C3.73405 12.0265 3.594 11.9323 3.45796 11.8319C3.42294 11.8064 3.38795 11.7819 3.35343 11.7539C3.22006 11.6539 3.09235 11.5467 2.97032 11.4323C2.93832 11.4033 2.9053 11.3748 2.87379 11.3448C2.74576 11.2232 2.62373 11.0947 2.50569 10.9617C2.49068 10.9442 2.47468 10.9282 2.45968 10.9116C3.13689 10.5889 3.85432 10.3584 4.59278 10.2264C4.93489 11.1669 5.3868 12.0637 5.93915 12.8982C5.86967 12.8857 5.79866 12.8787 5.73014 12.8637ZM7.00249 12.6757C6.43332 11.869 5.9652 10.9956 5.60858 10.0749C6.53484 9.97524 7.46911 9.97524 8.39536 10.0749L8.39487 10.0754C8.03787 10.9954 7.57031 11.8686 7.00249 12.6757ZM11.4988 10.9622C11.3812 11.0952 11.2587 11.2238 11.1307 11.3453C11.0992 11.3753 11.0662 11.4038 11.0342 11.4328C10.9108 11.5455 10.7831 11.6527 10.651 11.7544C10.6165 11.7809 10.5815 11.8069 10.5465 11.8324C10.4105 11.9324 10.2704 12.0267 10.1264 12.115L10.0264 12.1755C9.87498 12.2639 9.71961 12.3457 9.56025 12.4211C9.53124 12.4346 9.50272 12.4496 9.47371 12.4631C9.30767 12.5382 9.13811 12.6047 8.96605 12.6632C8.94006 12.6727 8.91603 12.6832 8.88755 12.6922C8.714 12.7502 8.53744 12.7982 8.35738 12.8423C8.32937 12.8488 8.30238 12.8578 8.27387 12.8638C8.20535 12.8788 8.13431 12.8858 8.0648 12.8983C8.61715 12.0638 9.06909 11.167 9.41117 10.2265C10.1496 10.3585 10.8671 10.589 11.5443 10.9117C11.5298 10.9287 11.5138 10.9447 11.4988 10.9622ZM12.135 10.0945C11.3683 9.70299 10.5494 9.42371 9.70329 9.2652C9.85271 8.68715 9.94634 8.09613 9.98286 7.5002H12.9787C12.9021 8.4186 12.6133 9.30667 12.135 10.0945Z" fill="#875EFF"/>
</g>
</g>
</g>
<defs>
<clipPath id="clip0_1_38">
<rect width="14" height="14" fill="white"/>
</clipPath>
</defs>
</svg>
