<svg width="20" height="20" viewBox="0 0 20 20" fill="none" xmlns="http://www.w3.org/2000/svg">
<g id="puzzle 1" clip-path="url(#clip0_1_1392)">
<g id="Group">
<path id="Vector" d="M19.739 7.44971L17.7067 9.48198C17.4014 9.78725 16.8811 9.668 16.739 9.26049C16.5329 8.66877 15.7694 8.4867 15.3193 8.93678C14.8694 9.38671 15.0511 10.1504 15.643 10.3565C16.0507 10.4987 16.1697 11.019 15.8645 11.3242L13.8116 13.377C13.4636 13.725 12.8973 13.725 12.5493 13.377L11.0323 11.86C10.2375 12.6857 8.92818 12.6885 8.12966 11.89C7.33208 11.0924 7.33298 9.78304 8.15966 8.98737L6.622 7.44971C6.27399 7.1017 6.27399 6.53541 6.622 6.18736L8.15966 4.6497C7.33396 3.85497 7.33114 2.54566 8.12966 1.74711C8.92732 0.949447 10.2367 0.950502 11.0323 1.77707L12.5493 0.26003C12.8973 -0.0879789 13.4636 -0.0879789 13.8116 0.26003L15.8645 2.31289C16.1692 2.61762 16.0513 3.13817 15.643 3.28055C15.0514 3.48657 14.8693 4.25024 15.3193 4.70028C15.7691 5.15013 16.5327 4.96868 16.739 4.37657C16.8812 3.96895 17.4015 3.84989 17.7067 4.15508L19.739 6.18736C20.087 6.53541 20.087 7.1017 19.739 7.44971Z" fill="#EAEAF1"/>
<path id="Vector_2" d="M10.8815 13.3752C9.70289 13.9042 8.26765 13.6856 7.30128 12.7193C6.33491 11.7529 6.11631 10.3177 6.6453 9.13902L5.1583 7.65202L4.67154 8.13878C3.8749 7.31151 2.56595 7.31182 1.76895 8.10882C0.972699 8.90507 0.970902 10.2139 1.79895 11.0114L0.261251 12.549C-0.0867582 12.897 -0.0867582 13.4633 0.261251 13.8113L1.79891 15.349C0.976567 16.1394 0.96723 17.4499 1.76891 18.2516C2.56911 19.0518 3.87959 19.0455 4.6715 18.2216L6.18854 19.7386C6.53655 20.0866 7.10284 20.0866 7.45085 19.7386L9.50371 17.6858C9.80898 17.3805 9.68973 16.8602 9.28222 16.7181C8.69089 16.5123 8.50824 15.7487 8.95851 15.2984C9.40836 14.8486 10.172 15.03 10.3782 15.6221C10.5204 16.0298 11.0407 16.1488 11.3459 15.8436L12.3479 14.8416L10.8815 13.3752Z" fill="#EAEAF1"/>
</g>
</g>
<defs>
<clipPath id="clip0_1_1392">
<rect width="20" height="20" fill="white"/>
</clipPath>
</defs>
</svg>
